<svg width="20" height="18" viewBox="0 0 20 18" fill="none" xmlns="http://www.w3.org/2000/svg">
<path d="M10 0.5C9.61303 0.500806 9.23725 0.629849 8.93142 0.866945C8.62559 1.10404 8.40697 1.43582 8.30976 1.81037C8.21255 2.18493 8.24223 2.58115 8.39415 2.93705C8.54608 3.29295 8.81168 3.58845 9.14942 3.77734L7.04492 7.98535L3.23438 4.1748C3.39926 3.90993 3.49033 3.60578 3.49815 3.29388C3.50597 2.98197 3.43027 2.67365 3.27887 2.40084C3.12747 2.12803 2.9059 1.90065 2.63708 1.74226C2.36827 1.58387 2.06201 1.50023 1.75 1.5C1.33376 1.50175 0.931772 1.65181 0.616199 1.92324C0.300626 2.19466 0.092135 2.56969 0.0281527 2.98099C-0.0358296 3.39228 0.0488871 3.81292 0.267095 4.16739C0.485303 4.52185 0.822711 4.78693 1.21875 4.91504L2.83496 13H17.165L18.7813 4.91699C19.1788 4.78999 19.5178 4.52512 19.7372 4.17016C19.9567 3.8152 20.042 3.39351 19.9779 2.98115C19.9138 2.5688 19.7044 2.19293 19.3876 1.92134C19.0708 1.64975 18.6673 1.50032 18.25 1.5C17.9381 1.50034 17.632 1.58401 17.3634 1.74235C17.0947 1.90069 16.8732 2.12794 16.7219 2.4006C16.5705 2.67326 16.4948 2.98141 16.5024 3.29317C16.5101 3.60493 16.601 3.90897 16.7656 4.17383L12.9551 7.98535L10.8516 3.77832C11.1899 3.58962 11.456 3.294 11.6082 2.9378C11.7605 2.5816 11.7903 2.18496 11.6929 1.81003C11.5955 1.4351 11.3764 1.10308 11.0701 0.866005C10.7637 0.628932 10.3874 0.500205 10 0.5ZM3 14.5V16.25C3 17.215 3.785 18 4.75 18H15.25C16.215 18 17 17.215 17 16.25V14.5H3Z" fill="#717D86"/>
</svg>
