<svg width="24" height="24" viewBox="0 0 24 24" fill="none" xmlns="http://www.w3.org/2000/svg">
<g id="icons8/double_right 2">
<path id="Vector" d="M4.00003 1.5C3.74415 1.5 3.48825 1.59772 3.293 1.79297C2.9025 2.18347 2.9025 2.81653 3.293 3.20703L12.086 12L3.293 20.793C2.9025 21.1835 2.9025 21.8165 3.293 22.207C3.4885 22.4025 3.74403 22.5 4.00003 22.5C4.25603 22.5 4.51156 22.4025 4.70706 22.207L14.2071 12.707C14.5976 12.3165 14.5976 11.6835 14.2071 11.293L4.70706 1.79297C4.51181 1.59772 4.2559 1.5 4.00003 1.5ZM10.5 1.5C10.2442 1.5 9.98825 1.59772 9.793 1.79297C9.4025 2.18347 9.4025 2.81653 9.793 3.20703L18.586 12L9.793 20.793C9.4025 21.1835 9.4025 21.8165 9.793 22.207C9.9885 22.4025 10.244 22.5 10.5 22.5C10.756 22.5 11.0116 22.4025 11.2071 22.207L20.7071 12.707C21.0976 12.3165 21.0976 11.6835 20.7071 11.293L11.2071 1.79297C11.0118 1.59772 10.7559 1.5 10.5 1.5Z" fill="white"/>
</g>
</svg>
